# xmcd CD database file
#
# Track frame offsets:
#	150
#	13732
#	30172
#	44622
#	56455
#	71252
#	85735
#	99997
#	109732
#	127657
#	143352
#	152120
#	164640
#	178040
#	190055
#	208047
#
# Disc length: 2947 seconds
#
# Revision: 4
# Processed by: cddbd v1.4PL0 Copyright (c) Steve Scherf et al.
# Submitted via: CDex 1.40Beta9
#
DISCID=c60b8110
DTITLE=Fiddlin' Johnny - Cowboy Legacy
DYEAR=1997
DGENRE=Country
TTITLE0=Shuckin' The Bush
TTITLE1=The Plainsman
TTITLE2=Over The Waves
TTITLE3=Hotfoot
TTITLE4=Tom And Jerry
TTITLE5=Golden Fiddle Waltz
TTITLE6=Sally Goodin
TTITLE7=Lime Rock
TTITLE8=Kelly Waltz
TTITLE9=Dusty Miller
TTITLE10=Bees Wings Hornpipe
TTITLE11=Luzenda Waltz
TTITLE12=Forked Deer
TTITLE13=Old Sport
TTITLE14=The Last Waltz
TTITLE15=Durang'S Hornpipe
EXTD=damn fine fiddling YEAR: 1997 ID3G: 2
EXTT0=
EXTT1=
EXTT2=
EXTT3=
EXTT4=
EXTT5=
EXTT6=
EXTT7=
EXTT8=
EXTT9=
EXTT10=
EXTT11=
EXTT12=
EXTT13=
EXTT14=
EXTT15=
PLAYORDER=
